<svg xmlns="http://www.w3.org/2000/svg" width="1920" height="1080" viewBox="0 0 1920 1080">
  <rect width="1920" height="1080" fill="#0A0D0B"/>
  <rect x="92" y="86" width="1736" height="2" fill="#31473A"/>
  <text x="92" y="61" fill="#8CCB9A" font-family="monospace" font-size="27" font-weight="700" letter-spacing="2">picoCTF 2024  /  BINARY EXPLOITATION</text>
  <text x="92" y="215" fill="#F0786E" font-family="monospace" font-size="124" font-weight="800" letter-spacing="-5">HEAP</text>
  <text x="92" y="330" fill="#F5F7F0" font-family="monospace" font-size="104" font-weight="800" letter-spacing="-5">OVERFLOW</text>
  <text x="99" y="392" fill="#D8BE73" font-family="monospace" font-size="31" font-weight="700">THE HEAP IS A NEIGHBORHOOD.</text>
  <rect x="93" y="464" width="742" height="372" rx="30" fill="#111915" stroke="#4C705B" stroke-width="4"/>
  <text x="132" y="532" fill="#8CCB9A" font-family="monospace" font-size="35" font-weight="700">input_data</text>
  <rect x="129" y="586" width="652" height="102" rx="17" fill="#17231D"/>
  <text x="154" y="650" fill="#F5F7F0" font-family="monospace" font-size="47" font-weight="800">A A A A A A A A</text>
  <text x="127" y="772" fill="#B6C2BA" font-family="monospace" font-size="25" font-weight="700">unbounded  scanf("%s", ...)</text>
  <path d="M790 640 H1028" stroke="#F0786E" stroke-width="20" stroke-linecap="round"/>
  <path d="M1028 640 L974 598 V682 Z" fill="#F0786E"/>
  <text x="843" y="598" fill="#F0786E" font-family="monospace" font-size="27" font-weight="800">32 bytes</text>
  <rect x="1072" y="464" width="651" height="372" rx="30" fill="#111915" stroke="#D8BE73" stroke-width="5"/>
  <text x="1113" y="532" fill="#D8BE73" font-family="monospace" font-size="35" font-weight="700">x</text>
  <rect x="1108" y="586" width="579" height="102" rx="17" fill="#1B2018" stroke="#F0786E" stroke-width="4"/>
  <text x="1140" y="650" fill="#D8BE73" font-family="monospace" font-size="39" font-weight="800">a0 11 40 00</text>
  <text x="1110" y="772" fill="#B6C2BA" font-family="monospace" font-size="25" font-weight="700">bytes treated as a function address</text>
  <rect x="1318" y="878" width="416" height="100" rx="20" fill="#17231D" stroke="#8CCB9A" stroke-width="4"/>
  <text x="1526" y="941" text-anchor="middle" fill="#8CCB9A" font-family="monospace" font-size="44" font-weight="800">win()</text>
  <path d="M1388 836 V864" stroke="#8CCB9A" stroke-width="12" stroke-linecap="round"/>
  <path d="M1388 864 L1358 828 H1418 Z" fill="#8CCB9A"/>
  <text x="92" y="1022" fill="#B6C2BA" font-family="monospace" font-size="25" font-weight="700">OVERFLOW  →  UNDERFLOW  →  USE-AFTER-FREE</text>
</svg>
